<svg width="96" height="96" viewBox="0 0 96 96" fill="none" xmlns="http://www.w3.org/2000/svg">
<path d="M78.8626 13.4626L8.96261 33.1501C8.36759 33.3127 7.83717 33.6549 7.44363 34.1299C7.05008 34.6049 6.81253 35.1897 6.76334 35.8046C6.71415 36.4195 6.8557 37.0346 7.16873 37.5662C7.48175 38.0977 7.95102 38.5199 8.51261 38.7751L40.6126 53.9626C41.2414 54.2538 41.7464 54.7588 42.0376 55.3876L57.2251 87.4876C57.4803 88.0492 57.9024 88.5184 58.434 88.8314C58.9655 89.1445 59.5806 89.286 60.1955 89.2368C60.8104 89.1876 61.3952 88.9501 61.8703 88.5565C62.3453 88.163 62.6874 87.6326 62.8501 87.0376L82.5376 17.1376C82.6868 16.6275 82.696 16.0867 82.5643 15.5718C82.4326 15.0569 82.1648 14.5869 81.789 14.2111C81.4132 13.8353 80.9433 13.5676 80.4284 13.4359C79.9135 13.3042 79.3727 13.3134 78.8626 13.4626V13.4626Z" stroke="#7353BA" stroke-width="3" stroke-linecap="round" stroke-linejoin="round"/>
<path d="M41.5875 54.4125L58.5375 37.4625" stroke="#7353BA" stroke-width="3" stroke-linecap="round" stroke-linejoin="round"/>
</svg>
